<?xml version="1.0" encoding="UTF-8"?>
<!-- Do not edit this file with editors other than draw.io -->
<!DOCTYPE svg PUBLIC "-//W3C//DTD SVG 1.1//EN" "http://www.w3.org/Graphics/SVG/1.1/DTD/svg11.dtd">
<svg xmlns="http://www.w3.org/2000/svg" style="background: transparent; background-color: transparent; color-scheme: light dark;" version="1.1" width="259px"
     height="239px" viewBox="-0.5 -0.5 259 239"
     content="&lt;mxfile host=&quot;app.diagrams.net&quot; agent=&quot;Mozilla/5.0 (X11; Linux x86_64) AppleWebKit/537.36 (KHTML, like Gecko) Chrome/131.0.0.0 Safari/537.36&quot; version=&quot;26.0.4&quot;&gt;&#10;  &lt;diagram name=&quot;Page-1&quot; id=&quot;u0459NCf6SCaz_QVevyV&quot;&gt;&#10;    &lt;mxGraphModel dx=&quot;1434&quot; dy=&quot;786&quot; grid=&quot;1&quot; gridSize=&quot;10&quot; guides=&quot;1&quot; tooltips=&quot;1&quot; connect=&quot;1&quot; arrows=&quot;1&quot; fold=&quot;1&quot; page=&quot;1&quot; pageScale=&quot;1&quot; pageWidth=&quot;850&quot; pageHeight=&quot;1100&quot; math=&quot;0&quot; shadow=&quot;0&quot;&gt;&#10;      &lt;root&gt;&#10;        &lt;mxCell id=&quot;0&quot; /&gt;&#10;        &lt;mxCell id=&quot;1&quot; parent=&quot;0&quot; /&gt;&#10;        &lt;mxCell id=&quot;Aerj9pRyg-CUB5MRAx0F-1&quot; value=&quot;&quot; style=&quot;sketch=0;outlineConnect=0;fontColor=#232F3E;gradientColor=none;fillColor=#8C4FFF;strokeColor=none;dashed=0;verticalLabelPosition=bottom;verticalAlign=top;align=center;html=1;fontSize=12;fontStyle=0;aspect=fixed;pointerEvents=1;shape=mxgraph.aws4.application_load_balancer;&quot; parent=&quot;1&quot; vertex=&quot;1&quot;&gt;&#10;          &lt;mxGeometry x=&quot;340&quot; y=&quot;200&quot; width=&quot;78&quot; height=&quot;78&quot; as=&quot;geometry&quot; /&gt;&#10;        &lt;/mxCell&gt;&#10;        &lt;mxCell id=&quot;Aerj9pRyg-CUB5MRAx0F-2&quot; value=&quot;&quot; style=&quot;sketch=0;points=[[0,0,0],[0.25,0,0],[0.5,0,0],[0.75,0,0],[1,0,0],[0,1,0],[0.25,1,0],[0.5,1,0],[0.75,1,0],[1,1,0],[0,0.25,0],[0,0.5,0],[0,0.75,0],[1,0.25,0],[1,0.5,0],[1,0.75,0]];outlineConnect=0;fontColor=#232F3E;fillColor=#ED7100;strokeColor=#ffffff;dashed=0;verticalLabelPosition=bottom;verticalAlign=top;align=center;html=1;fontSize=12;fontStyle=0;aspect=fixed;shape=mxgraph.aws4.resourceIcon;resIcon=mxgraph.aws4.ec2;&quot; parent=&quot;1&quot; vertex=&quot;1&quot;&gt;&#10;          &lt;mxGeometry x=&quot;320&quot; y=&quot;350&quot; width=&quot;78&quot; height=&quot;78&quot; as=&quot;geometry&quot; /&gt;&#10;        &lt;/mxCell&gt;&#10;        &lt;mxCell id=&quot;Aerj9pRyg-CUB5MRAx0F-3&quot; value=&quot;&quot; style=&quot;sketch=0;points=[[0,0,0],[0.25,0,0],[0.5,0,0],[0.75,0,0],[1,0,0],[0,1,0],[0.25,1,0],[0.5,1,0],[0.75,1,0],[1,1,0],[0,0.25,0],[0,0.5,0],[0,0.75,0],[1,0.25,0],[1,0.5,0],[1,0.75,0]];outlineConnect=0;fontColor=#232F3E;fillColor=#ED7100;strokeColor=#ffffff;dashed=0;verticalLabelPosition=bottom;verticalAlign=top;align=center;html=1;fontSize=12;fontStyle=0;aspect=fixed;shape=mxgraph.aws4.resourceIcon;resIcon=mxgraph.aws4.compute;&quot; parent=&quot;1&quot; vertex=&quot;1&quot;&gt;&#10;          &lt;mxGeometry x=&quot;160&quot; y=&quot;350&quot; width=&quot;78&quot; height=&quot;78&quot; as=&quot;geometry&quot; /&gt;&#10;        &lt;/mxCell&gt;&#10;        &lt;mxCell id=&quot;JRBBus-apD2AIYkcN90n-1&quot; value=&quot;&quot; style=&quot;sketch=0;outlineConnect=0;fontColor=#232F3E;gradientColor=none;fillColor=#8C4FFF;strokeColor=none;dashed=0;verticalLabelPosition=bottom;verticalAlign=top;align=center;html=1;fontSize=12;fontStyle=0;aspect=fixed;pointerEvents=1;shape=mxgraph.aws4.network_access_control_list;&quot; vertex=&quot;1&quot; parent=&quot;1&quot;&gt;&#10;          &lt;mxGeometry x=&quot;220&quot; y=&quot;190&quot; width=&quot;78&quot; height=&quot;78&quot; as=&quot;geometry&quot; /&gt;&#10;        &lt;/mxCell&gt;&#10;      &lt;/root&gt;&#10;    &lt;/mxGraphModel&gt;&#10;  &lt;/diagram&gt;&#10;&lt;/mxfile&gt;&#10;">
    <defs/>
    <g>
        <g data-cell-id="0">
            <g data-cell-id="1">
                <g data-cell-id="Aerj9pRyg-CUB5MRAx0F-1">
                    <g>
                        <rect x="180" y="10" width="78" height="78" fill="none" stroke="none" pointer-events="all"/>
                        <path d="M 219 10 C 197.49 10 180 27.5 180 49 C 180 70.5 197.49 88 219 88 C 240.5 88 258 70.5 258 49 C 258 27.5 240.5 10 219 10 Z M 219 84.45 C 199.45 84.45 183.55 68.55 183.55 49 C 183.55 29.45 199.45 13.55 219 13.55 C 238.55 13.55 254.45 29.45 254.45 49 C 254.45 68.55 238.55 84.45 219 84.45 Z M 242.11 59.64 L 239.39 59.64 L 239.39 53.65 C 239.39 52.67 238.59 51.88 237.61 51.88 L 233.18 51.88 L 233.18 45.9 C 233.18 44.92 232.39 44.13 231.41 44.13 L 220.77 44.13 L 220.77 39.91 L 231.41 39.91 C 232.39 39.91 233.18 39.12 233.18 38.14 L 233.18 24.18 C 233.18 23.2 232.39 22.41 231.41 22.41 L 206.59 22.41 C 205.61 22.41 204.82 23.2 204.82 24.18 L 204.82 38.14 C 204.82 39.12 205.61 39.91 206.59 39.91 L 217.23 39.91 L 217.23 44.13 L 206.59 44.13 C 205.61 44.13 204.82 44.92 204.82 45.9 L 204.82 51.88 L 200.39 51.88 C 199.41 51.88 198.61 52.67 198.61 53.65 L 198.61 59.64 L 195.89 59.64 C 194.91 59.64 194.12 60.43 194.12 61.41 L 194.12 69.16 C 194.12 70.14 194.91 70.94 195.89 70.94 L 203.49 70.94 C 204.47 70.94 205.26 70.14 205.26 69.16 L 205.26 61.41 C 205.26 60.43 204.47 59.64 203.49 59.64 L 202.16 59.64 L 202.16 55.43 L 209.47 55.43 L 209.47 59.64 L 208.14 59.64 C 207.16 59.64 206.37 60.43 206.37 61.41 L 206.37 69.16 C 206.37 70.14 207.16 70.94 208.14 70.94 L 215.9 70.94 C 216.88 70.94 217.67 70.14 217.67 69.16 L 217.67 61.41 C 217.67 60.43 216.88 59.64 215.9 59.64 L 213.02 59.64 L 213.02 53.65 C 213.02 52.67 212.22 51.88 211.25 51.88 L 208.36 51.88 L 208.36 47.67 L 229.64 47.67 L 229.64 51.88 L 226.76 51.88 C 225.78 51.88 224.98 52.67 224.98 53.65 L 224.98 59.64 L 222.1 59.64 C 221.12 59.64 220.33 60.43 220.33 61.41 L 220.33 69.16 C 220.33 70.14 221.12 70.94 222.1 70.94 L 229.86 70.94 C 230.84 70.94 231.63 70.14 231.63 69.16 L 231.63 61.41 C 231.63 60.43 230.84 59.64 229.86 59.64 L 228.53 59.64 L 228.53 55.43 L 235.84 55.43 L 235.84 59.64 L 234.4 59.64 C 233.42 59.64 232.63 60.43 232.63 61.41 L 232.63 69.16 C 232.63 70.14 233.42 70.94 234.4 70.94 L 242.11 70.94 C 243.08 70.94 243.88 70.14 243.88 69.16 L 243.88 61.41 C 243.88 60.43 243.08 59.64 242.11 59.64 Z M 208.36 36.37 L 208.36 25.96 L 229.64 25.96 L 229.64 36.37 Z M 197.67 67.39 L 197.67 63.18 L 201.72 63.18 L 201.72 67.39 Z M 209.92 67.39 L 209.92 63.18 L 214.13 63.18 L 214.13 67.39 Z M 223.88 67.39 L 223.88 63.18 L 228.09 63.18 L 228.09 67.39 Z M 236.18 67.39 L 236.18 63.18 L 240.33 63.18 L 240.33 67.39 Z"
                              fill="#8c4fff" stroke="none" pointer-events="all" style="fill: light-dark(rgb(140, 79, 255), rgb(177, 125, 255));"/>
                    </g>
                </g>
                <g data-cell-id="Aerj9pRyg-CUB5MRAx0F-2">
                    <g>
                        <path d="M 160 160 L 238 160 L 238 238 L 160 238 Z" fill="#ed7100" stroke="none" pointer-events="all" style="fill: light-dark(rgb(237, 113, 0), rgb(216, 109, 12));"/>
                        <path d="M 184.51 213.49 L 212.37 213.49 L 212.37 185.63 L 184.51 185.63 Z M 214.6 185.63 L 219.06 185.63 L 219.06 187.86 L 214.6 187.86 L 214.6 192.31 L 219.06 192.31 L 219.06 194.54 L 214.6 194.54 L 214.6 197.89 L 219.06 197.89 L 219.06 200.11 L 214.6 200.11 L 214.6 204.57 L 219.06 204.57 L 219.06 206.8 L 214.6 206.8 L 214.6 211.26 L 219.06 211.26 L 219.06 213.49 L 214.6 213.49 L 214.6 213.64 C 214.6 214.78 213.67 215.71 212.52 215.71 L 212.37 215.71 L 212.37 220.17 L 210.14 220.17 L 210.14 215.71 L 205.69 215.71 L 205.69 220.17 L 203.46 220.17 L 203.46 215.71 L 200.11 215.71 L 200.11 220.17 L 197.89 220.17 L 197.89 215.71 L 193.43 215.71 L 193.43 220.17 L 191.2 220.17 L 191.2 215.71 L 186.74 215.71 L 186.74 220.17 L 184.51 220.17 L 184.51 215.71 L 184.36 215.71 C 183.22 215.71 182.29 214.78 182.29 213.64 L 182.29 213.49 L 178.94 213.49 L 178.94 211.26 L 182.29 211.26 L 182.29 206.8 L 178.94 206.8 L 178.94 204.57 L 182.29 204.57 L 182.29 200.11 L 178.94 200.11 L 178.94 197.89 L 182.29 197.89 L 182.29 194.54 L 178.94 194.54 L 178.94 192.31 L 182.29 192.31 L 182.29 187.86 L 178.94 187.86 L 178.94 185.63 L 182.29 185.63 L 182.29 185.48 C 182.29 184.33 183.22 183.4 184.36 183.4 L 184.51 183.4 L 184.51 178.94 L 186.74 178.94 L 186.74 183.4 L 191.2 183.4 L 191.2 178.94 L 193.43 178.94 L 193.43 183.4 L 197.89 183.4 L 197.89 178.94 L 200.11 178.94 L 200.11 183.4 L 203.46 183.4 L 203.46 178.94 L 205.69 178.94 L 205.69 183.4 L 210.14 183.4 L 210.14 178.94 L 212.37 178.94 L 212.37 183.4 L 212.52 183.4 C 213.67 183.4 214.6 184.33 214.6 185.48 Z M 200.11 227.83 C 200.11 227.91 200.05 227.97 199.98 227.97 L 170.17 227.97 C 170.09 227.97 170.03 227.91 170.03 227.83 L 170.03 198.02 C 170.03 197.95 170.09 197.89 170.17 197.89 L 176.71 197.89 L 176.71 195.66 L 170.17 195.66 C 168.86 195.66 167.8 196.72 167.8 198.02 L 167.8 227.83 C 167.8 229.14 168.86 230.2 170.17 230.2 L 199.98 230.2 C 201.28 230.2 202.34 229.14 202.34 227.83 L 202.34 222.4 L 200.11 222.4 Z M 230.2 170.17 L 230.2 199.98 C 230.2 201.28 229.14 202.34 227.83 202.34 L 221.29 202.34 L 221.29 200.11 L 227.83 200.11 C 227.91 200.11 227.97 200.05 227.97 199.98 L 227.97 170.17 C 227.97 170.09 227.91 170.03 227.83 170.03 L 198.02 170.03 C 197.95 170.03 197.89 170.09 197.89 170.17 L 197.89 176.71 L 195.66 176.71 L 195.66 170.17 C 195.66 168.86 196.72 167.8 198.02 167.8 L 227.83 167.8 C 229.14 167.8 230.2 168.86 230.2 170.17 Z"
                              fill="#ffffff" stroke="none" pointer-events="all" style="fill: light-dark(rgb(255, 255, 255), rgb(18, 18, 18));"/>
                    </g>
                </g>
                <g data-cell-id="Aerj9pRyg-CUB5MRAx0F-3">
                    <g>
                        <path d="M 0 160 L 78 160 L 78 238 L 0 238 Z" fill="#ed7100" stroke="none" pointer-events="all" style="fill: light-dark(rgb(237, 113, 0), rgb(216, 109, 12));"/>
                        <path d="M 27.09 210.91 L 27.09 187.09 L 50.91 187.09 L 50.91 210.91 Z M 25.95 213.18 L 52.05 213.18 C 52.67 213.18 53.18 212.67 53.18 212.05 L 53.18 185.95 C 53.18 185.33 52.67 184.82 52.05 184.82 L 25.95 184.82 C 25.33 184.82 24.82 185.33 24.82 185.95 L 24.82 212.05 C 24.82 212.67 25.33 213.18 25.95 213.18 Z M 18.01 219.99 L 18.01 178.01 L 59.99 178.01 L 59.99 219.99 Z M 70.2 180.28 L 70.2 178.01 L 62.26 178.01 L 62.26 176.88 C 62.26 176.25 61.75 175.74 61.12 175.74 L 59.99 175.74 L 59.99 167.8 L 57.72 167.8 L 57.72 175.74 L 52.05 175.74 L 52.05 167.8 L 49.78 167.8 L 49.78 175.74 L 44.11 175.74 L 44.11 167.8 L 41.84 167.8 L 41.84 175.74 L 36.16 175.74 L 36.16 167.8 L 33.89 167.8 L 33.89 175.74 L 28.22 175.74 L 28.22 167.8 L 25.95 167.8 L 25.95 175.74 L 20.28 175.74 L 20.28 167.8 L 18.01 167.8 L 18.01 175.74 L 16.88 175.74 C 16.25 175.74 15.74 176.25 15.74 176.88 L 15.74 178.01 L 7.8 178.01 L 7.8 180.28 L 15.74 180.28 L 15.74 185.95 L 7.8 185.95 L 7.8 188.22 L 15.74 188.22 L 15.74 193.89 L 7.8 193.89 L 7.8 196.16 L 15.74 196.16 L 15.74 201.84 L 7.8 201.84 L 7.8 204.11 L 15.74 204.11 L 15.74 209.78 L 7.8 209.78 L 7.8 212.05 L 15.74 212.05 L 15.74 217.72 L 7.8 217.72 L 7.8 219.99 L 15.74 219.99 L 15.74 221.12 C 15.74 221.75 16.25 222.26 16.88 222.26 L 18.01 222.26 L 18.01 230.2 L 20.28 230.2 L 20.28 222.26 L 25.95 222.26 L 25.95 230.2 L 28.22 230.2 L 28.22 222.26 L 33.89 222.26 L 33.89 230.2 L 36.16 230.2 L 36.16 222.26 L 41.84 222.26 L 41.84 230.2 L 44.11 230.2 L 44.11 222.26 L 49.78 222.26 L 49.78 230.2 L 52.05 230.2 L 52.05 222.26 L 57.72 222.26 L 57.72 230.2 L 59.99 230.2 L 59.99 222.26 L 61.12 222.26 C 61.75 222.26 62.26 221.75 62.26 221.12 L 62.26 219.99 L 70.2 219.99 L 70.2 217.72 L 62.26 217.72 L 62.26 212.05 L 70.2 212.05 L 70.2 209.78 L 62.26 209.78 L 62.26 204.11 L 70.2 204.11 L 70.2 201.84 L 62.26 201.84 L 62.26 196.16 L 70.2 196.16 L 70.2 193.89 L 62.26 193.89 L 62.26 188.22 L 70.2 188.22 L 70.2 185.95 L 62.26 185.95 L 62.26 180.28 Z"
                              fill="#ffffff" stroke="none" pointer-events="all" style="fill: light-dark(rgb(255, 255, 255), rgb(18, 18, 18));"/>
                    </g>
                </g>
                <g data-cell-id="JRBBus-apD2AIYkcN90n-1">
                    <g>
                        <rect x="60" y="0" width="78" height="78" fill="none" stroke="none" pointer-events="all"/>
                        <path d="M 114.29 59.17 L 117.83 59.17 L 117.83 18.83 L 114.29 18.83 Z M 80.17 59.17 L 83.71 59.17 L 83.71 18.83 L 80.17 18.83 Z M 126.7 41.63 L 123.54 39 L 126.7 36.37 Z M 129.22 30.98 C 128.61 30.69 127.87 30.78 127.33 31.22 L 119.63 37.64 C 119.23 37.98 119 38.47 119 39 C 119 39.53 119.23 40.03 119.63 40.36 L 127.34 46.78 C 127.66 47.05 128.06 47.19 128.47 47.19 C 128.73 47.19 128.98 47.14 129.22 47.02 C 129.84 46.73 130.24 46.11 130.24 45.42 L 130.24 32.58 C 130.24 31.89 129.84 31.27 129.22 30.98 Z M 71.3 41.63 L 71.3 36.37 L 74.46 39 Z M 70.67 31.22 C 70.14 30.78 69.4 30.69 68.78 30.98 C 68.16 31.27 67.76 31.89 67.76 32.58 L 67.76 45.42 C 67.76 46.11 68.16 46.73 68.78 47.02 C 69.02 47.14 69.27 47.19 69.53 47.19 C 69.94 47.19 70.34 47.05 70.66 46.78 L 78.37 40.36 C 78.77 40.03 79 39.53 79 39 C 79 38.47 78.77 37.98 78.37 37.64 Z M 99 74.45 C 79.45 74.45 63.55 58.55 63.55 39 C 63.55 19.45 79.45 3.55 99 3.55 C 118.55 3.55 134.45 19.45 134.45 39 C 134.45 58.55 118.55 74.45 99 74.45 Z M 99 0 C 77.5 0 60 17.49 60 39 C 60 60.51 77.5 78 99 78 C 120.5 78 138 60.51 138 39 C 138 17.49 120.5 0 99 0 Z M 106.53 48.09 L 91.47 48.08 L 91.47 36.12 L 106.53 36.13 Z M 96.13 30.23 C 96.13 29.25 96.46 28.34 97.05 27.67 C 97.59 27.07 98.29 26.73 99.01 26.73 L 99.02 26.73 C 100.6 26.74 101.88 28.32 101.87 30.27 L 101.87 32.58 L 96.12 32.58 Z M 108.31 32.58 L 105.41 32.58 L 105.42 30.28 C 105.43 26.38 102.56 23.2 99.03 23.18 L 99.01 23.18 C 97.26 23.18 95.62 23.94 94.4 25.32 C 93.23 26.63 92.59 28.37 92.58 30.21 L 92.57 32.58 L 89.7 32.57 C 89.23 32.57 88.78 32.76 88.44 33.09 C 88.11 33.43 87.92 33.88 87.92 34.35 L 87.92 49.85 C 87.92 50.83 88.71 51.62 89.69 51.62 L 108.3 51.63 C 108.77 51.63 109.22 51.45 109.55 51.11 C 109.89 50.78 110.07 50.33 110.07 49.86 L 110.08 34.35 C 110.08 33.88 109.89 33.43 109.56 33.1 C 109.23 32.77 108.78 32.58 108.31 32.58 Z"
                              fill="#8c4fff" stroke="none" pointer-events="all" style="fill: light-dark(rgb(140, 79, 255), rgb(177, 125, 255));"/>
                    </g>
                </g>
            </g>
        </g>
    </g>
</svg>